<?xml version="1.0" standalone="no"?>
<!DOCTYPE svg PUBLIC "-//W3C//DTD SVG 20010904//EN"
 "http://www.w3.org/TR/2001/REC-SVG-20010904/DTD/svg10.dtd">
<svg version="1.0" xmlns="http://www.w3.org/2000/svg"
 width="800.000000pt" height="800.000000pt" viewBox="0 0 800.000000 800.000000"
 preserveAspectRatio="xMidYMid meet">

<g transform="translate(0.000000,800.000000) scale(0.100000,-0.100000)"
fill="#000000" stroke="none">
<path d="M3594 5279 c-53 -15 -94 -81 -94 -150 0 -28 -2 -29 -45 -29 -38 0
-45 -3 -45 -20 0 -17 7 -20 45 -20 l45 0 0 -221 0 -220 28 3 27 3 3 218 2 217
60 0 c53 0 60 2 60 20 0 18 -7 20 -60 20 l-60 0 0 48 c0 26 4 52 8 58 13 20
50 34 91 34 33 0 41 3 41 19 0 29 -46 38 -106 20z"/>
<path d="M172 4948 l3 -323 28 -3 27 -3 0 280 c0 218 3 281 13 281 7 0 56
-119 116 -281 91 -245 107 -280 124 -277 16 2 39 54 120 273 55 149 105 273
111 277 8 5 12 -72 16 -270 l5 -277 33 -3 32 -3 0 325 0 326 -53 0 -54 0 -95
-257 c-57 -157 -100 -259 -109 -261 -10 -1 -42 74 -110 255 l-96 258 -56 3
-57 3 2 -323z"/>
<path d="M972 5238 c3 -29 7 -33 36 -36 31 -3 32 -2 32 32 0 35 -1 36 -36 36
-34 0 -35 -1 -32 -32z"/>
<path d="M3837 5223 c-3 -5 -8 -34 -11 -65 l-7 -58 -40 0 c-32 0 -39 -3 -39
-20 0 -17 7 -20 39 -20 l39 0 4 -177 c2 -149 6 -183 21 -211 22 -40 69 -62
132 -62 40 0 45 2 45 23 0 20 -5 22 -50 22 -83 0 -84 5 -88 220 l-3 185 55 0
c49 0 56 2 56 20 0 18 -7 20 -55 20 l-55 0 0 65 c0 58 -2 65 -19 65 -11 0 -22
-3 -24 -7z"/>
<path d="M4097 5123 c-11 -10 -8 -93 3 -93 6 0 10 9 10 20 0 11 6 20 14 20 8
0 18 -9 21 -20 3 -11 9 -20 13 -20 10 0 9 72 -1 88 -9 13 -49 17 -60 5z m53
-28 c0 -8 -9 -15 -20 -15 -11 0 -20 7 -20 15 0 8 9 15 20 15 11 0 20 -7 20
-15z"/>
<path d="M1295 5094 c-77 -40 -116 -107 -123 -209 -2 -38 1 -88 7 -111 40
-147 195 -211 297 -122 60 53 81 111 44 121 -17 4 -24 -2 -37 -34 -22 -57 -55
-79 -117 -79 -84 1 -125 53 -134 172 -12 167 61 260 178 228 42 -11 80 -55 80
-92 0 -13 8 -18 26 -18 24 0 26 3 20 32 -8 43 -48 92 -89 112 -44 20 -113 21
-152 0z"/>
<path d="M1820 5094 c-14 -9 -37 -34 -53 -55 -15 -22 -32 -37 -37 -34 -6 3
-10 26 -10 51 0 40 -2 44 -25 44 l-25 0 0 -240 0 -240 29 0 29 0 4 163 c3 149
5 165 26 200 27 42 51 58 102 66 29 5 36 11 38 34 3 24 0 27 -25 27 -15 0 -39
-8 -53 -16z"/>
<path d="M2073 5089 c-82 -40 -128 -134 -121 -247 9 -162 122 -258 259 -222
56 15 129 88 147 146 28 96 2 231 -56 287 -60 58 -155 73 -229 36z m147 -48
c19 -10 43 -33 54 -50 24 -41 32 -144 17 -208 -33 -136 -176 -166 -242 -50
-20 35 -24 55 -24 127 0 99 19 148 68 179 40 26 82 26 127 2z"/>
<path d="M2543 5090 c-48 -21 -83 -70 -83 -113 0 -69 59 -116 170 -136 94 -17
129 -30 140 -51 11 -21 13 -60 4 -85 -27 -69 -251 -54 -269 18 -5 19 -12 23
-35 19 -29 -4 -29 -5 -15 -33 30 -56 113 -99 195 -99 61 0 113 21 154 61 37
37 38 42 34 89 -8 83 -55 116 -198 141 -100 17 -120 31 -120 86 0 40 29 69 78
77 61 9 111 -4 145 -39 31 -30 67 -37 67 -11 0 21 -64 76 -101 86 -53 15 -120
11 -166 -10z"/>
<path d="M3070 5094 c-149 -64 -187 -291 -70 -418 64 -70 142 -83 228 -40 170
85 169 377 -3 455 -48 22 -108 24 -155 3z m138 -54 c48 -30 72 -88 72 -180 0
-123 -41 -185 -127 -197 -49 -6 -100 27 -128 82 -25 51 -27 184 -3 230 42 80
118 106 186 65z"/>
<path d="M980 4859 l0 -240 28 3 27 3 3 238 2 237 -30 0 -30 0 0 -241z"/>
<path d="M7288 4683 l-98 -4 0 -179 0 -179 -627 -4 c-699 -4 -672 -1 -823 -75
-92 -45 -226 -174 -283 -272 -118 -204 -146 -478 -77 -757 33 -133 62 -196
131 -283 l39 -50 -295 0 -295 0 -1 53 c-15 1027 -17 1049 -77 1161 -57 106
-179 197 -307 231 -111 29 -248 14 -348 -36 -53 -28 -165 -135 -213 -205 -58
-84 -64 -76 -64 81 l0 135 -105 0 -105 0 0 -800 0 -800 115 0 115 0 1 308 c0
169 4 406 8 527 8 198 11 227 33 286 66 178 176 281 332 310 162 29 301 -44
357 -190 20 -51 23 -82 30 -351 4 -162 8 -429 8 -592 l1 -298 690 0 c757 0
777 1 906 60 150 68 272 189 333 333 l20 45 -72 16 c-140 31 -129 33 -156 -23
-13 -27 -42 -73 -65 -102 -37 -47 -55 -60 -131 -93 -196 -85 -392 -50 -529 94
-87 91 -122 185 -133 358 l-6 102 245 0 c135 0 388 3 562 7 l318 6 -5 131 c-2
76 -12 156 -21 191 -23 82 -79 199 -127 263 l-40 52 320 0 319 0 6 -32 c3 -18
8 -256 12 -528 7 -543 11 -589 65 -691 39 -73 83 -112 169 -153 60 -28 75 -31
190 -34 69 -2 150 0 180 5 l55 8 3 82 3 82 -114 -6 c-149 -8 -204 5 -262 61
-27 25 -47 56 -54 81 -7 27 -11 221 -11 588 l0 547 190 0 190 0 0 85 0 85
-190 0 -190 0 0 185 c0 142 -3 185 -12 183 -7 -1 -57 -4 -110 -5z m-1045 -581
c76 -38 134 -98 172 -179 25 -52 55 -178 55 -229 l0 -24 -431 0 -431 0 6 48
c23 159 90 275 205 354 73 51 141 68 257 65 90 -2 107 -6 167 -35z"/>
<path d="M168 4379 c-10 -5 -18 -17 -18 -25 0 -11 535 -1541 565 -1617 12 -30
40 -37 143 -37 80 0 104 3 121 18 15 12 102 249 301 815 154 439 280 809 280
821 0 31 -16 36 -106 36 -57 0 -78 -4 -91 -18 -10 -9 -124 -338 -253 -730
-129 -391 -238 -712 -241 -712 -3 0 -115 321 -248 713 -168 494 -249 717 -263
730 -15 13 -38 17 -97 17 -42 0 -84 -5 -93 -11z"/>
<path d="M1862 4357 l-22 -23 0 -788 c0 -494 4 -794 10 -806 18 -34 66 -40
299 -40 350 0 472 22 596 105 124 83 185 194 193 352 5 114 -19 206 -75 281
-60 78 -114 116 -228 157 -19 7 -20 7 -1 18 135 83 200 197 199 353 -1 214
-119 352 -340 399 -50 11 -141 15 -339 15 -270 0 -271 0 -292 -23z m606 -177
c96 -42 142 -119 142 -237 0 -126 -48 -211 -146 -259 -53 -26 -65 -28 -235
-32 l-179 -5 0 283 0 282 183 -4 c163 -4 188 -7 235 -28z m80 -734 c111 -51
162 -136 162 -269 0 -92 -15 -139 -63 -193 -77 -87 -143 -104 -407 -104 l-190
0 0 301 0 301 218 -4 c215 -3 217 -3 280 -32z"/>
<path d="M3207 3166 c-173 -64 -218 -275 -84 -393 97 -85 227 -81 317 9 88 87
93 214 14 306 -64 76 -167 108 -247 78z"/>
</g>
</svg>
